<svg xmlns="http://www.w3.org/2000/svg" xml:space="preserve" style="enable-background:new 0 0 2000 2000;" viewBox="0 0 2000 2000"><path d="M147.54 999.8v529.63l75.28-.41 75.28-.41v-410.8c0-241.31.81-410.39 1.83-409.78 3.05 2.03 76.5 96.85 127.57 165.01 16.89 22.38 59.82 79.56 95.63 127.17 35.81 47.61 123.5 164.2 195.13 259.42 137.54 183.12 200.21 265.93 202.65 267.56.81.61 30.52 1.02 66.33 1.02 50.46 0 64.7-.61 64.5-2.65-.2-1.22-.41-16.48-.41-33.78-.41-31.33-.41-31.33-22.18-61.65-11.8-16.48-38.46-52.49-59.21-79.96s-95.63-126.76-166.23-220.76-142.02-188.82-158.5-210.59c-16.68-21.77-69.99-92.78-118.83-157.69-106.82-142.22-210.79-279.16-216.9-285.47-4.48-4.68-4.48-4.68-83.22-5.09l-78.74-.41V999.8zM957.34 471.19c0 .61 6.1 7.53 13.84 15.26 13.02 13.63 88.31 96.04 108.65 118.62 9.36 10.58 9.36 10.58 216.69 10.58 135.71 0 215.07.81 229.72 2.24 30.32 3.05 56.77 10.17 79.96 21.36 16.89 8.14 22.18 12 37.85 28.08 31.74 31.94 43.54 62.06 45.17 114.15 1.42 46.19-5.9 77.32-25.64 107.23-18.31 27.88-48.22 50.87-79.76 61.45-37.23 12.41-29.1 12-271.02 12.82l-221.17.81.41 73.25.61 73.25 141.61-.2c141.82 0 141.82 0 172.95 42.12 71.21 96.65 106.01 144.87 176.81 244.77 19.53 27.47 48.83 67.96 65.52 90.14 30.11 40.29 30.11 40.29 118.62 41.1 48.83.41 88.51 0 88.1-.61-1.63-3.66-171.12-240.7-242.74-339.79-31.94-43.95-57.99-80.78-57.99-81.59 0-1.02 4.88-2.44 10.78-3.26 69.59-8.95 137.95-40.49 183.53-84.64 59.01-57.17 88.51-134.49 88.51-232.56 0-94.82-28.89-169.08-88.1-226.46-29.91-28.89-60.02-47.81-99.7-62.46-43.95-16.28-80.37-23.2-131.64-24.82-43.54-1.45-561.57-2.26-561.57-.84z"/><path d="M902 834.79c.41 363.8.41 363.8 6.31 370.92 29.91 37.44 133.27 174.78 137.34 182.71 1.83 3.46 4.07 6.51 4.88 6.51s1.22-171.73.81-381.71c-.41-381.71-.41-381.71-6.1-388.42-6.31-7.53-57.58-63.08-100.11-108.86-16.28-17.29-31.94-34.59-35-38.25-3.05-3.46-6.1-6.51-7.12-6.51-.81.01-1.42 163.6-1.01 363.61z"/></svg>